Jump_normalized_Precision Landing15_filtered_grf
version=1
nRows=25
nColumns=37
inDegrees=yes
endheader
time		1_ground_force_vx		1_ground_force_vy		1_ground_force_vz		1_ground_force_px		1_ground_force_py		1_ground_force_pz		1_ground_torque_x		1_ground_torque_y		1_ground_torque_z		2_ground_force_vx		2_ground_force_vy		2_ground_force_vz		2_ground_force_px		2_ground_force_py		2_ground_force_pz		2_ground_torque_x		2_ground_torque_y		2_ground_torque_z		3_ground_force_vx		3_ground_force_vy		3_ground_force_vz		3_ground_force_px		3_ground_force_py		3_ground_force_pz		3_ground_torque_x		3_ground_torque_y		3_ground_torque_z		4_ground_force_vx		4_ground_force_vy		4_ground_force_vz		4_ground_force_px		4_ground_force_py		4_ground_force_pz		4_ground_torque_x		4_ground_torque_y		4_ground_torque_z		
0.327000		0.000000		0.000000		-0.000000		0.103552		0.000000		0.319021		0.000000		-0.000000		-0.000000		-0.000000		-0.000000		-0.000000		-0.151368		0.000000		0.304495		-0.000000		0.000000		0.000000		-24.249299		647.632597		36.313480		0.352788		1.253627		1.892911		1.251119		-33.413969		-1.873558		5.728573		449.294239		-24.685250		-0.289747		1.264069		1.904390		0.354513		27.804606		-1.527648		
0.330106		0.000000		0.000000		0.000000		0.103552		0.000000		0.319021		0.000000		0.000000		-0.000000		-0.000000		0.000000		-0.000000		-0.151368		0.000000		0.304495		0.000000		0.000000		0.000000		-24.833131		643.404876		33.057312		0.352807		1.253633		1.892901		1.280844		-33.185541		-1.705031		5.052283		445.580093		-27.826947		-0.289732		1.264063		1.904413		0.314468		27.734280		-1.732041		
0.333212		0.000000		0.000000		0.000000		0.103552		0.000000		0.319021		0.000000		0.000000		-0.000000		-0.000000		0.000000		0.000000		-0.151368		0.000000		0.304495		0.000000		0.000000		0.000000		-25.502060		639.119892		29.837397		0.352839		1.253637		1.892887		1.314481		-32.942880		-1.537944		4.321417		441.767214		-30.915948		-0.289718		1.264059		1.904434		3.955290		31.879232		58.790727		
0.336318		-0.000000		0.000000		0.000000		0.103552		0.000000		0.319021		0.000000		0.000000		-0.000000		-0.000000		0.000000		0.000000		-0.151368		0.000000		0.304495		0.000000		-0.000000		0.000000		-26.286344		634.780400		26.686430		0.352880		1.253648		1.892880		1.353790		-32.692241		-1.374396		3.534381		437.812154		-33.876517		-0.289703		1.264057		1.904451		3.920020		32.231676		58.183954		
0.339424		-0.000000		0.000000		0.000000		0.103552		0.000000		0.319021		0.000000		0.000000		-0.000000		0.000000		0.000000		0.000000		-0.151368		0.000000		0.304495		0.000000		-0.000000		0.000000		-27.188991		630.380943		23.596346		0.352930		1.253671		1.892886		1.399133		-32.439134		-1.214259		2.698936		433.657630		-36.668220		-0.289684		1.264057		1.904463		3.886632		32.553960		57.564790		
0.342530		-0.000000		-0.000000		0.000000		0.103552		0.000000		0.319021		-0.000000		0.000000		0.000000		0.000000		0.000000		0.000000		-0.151368		0.000000		0.304495		0.000000		-0.000000		0.000000		-28.186976		625.908543		20.508756		0.352984		1.253709		1.892904		1.449484		-32.186661		-1.054641		1.825704		429.221740		-39.280254		-0.289661		1.264059		1.904471		3.858141		32.833582		56.923412		
0.345636		-0.000000		-0.000000		-0.000000		0.103552		0.000000		0.319021		-0.000000		-0.000000		0.000000		0.000000		-0.000000		0.000000		-0.151368		0.000000		0.304495		0.000000		-0.000000		-0.000000		-29.240219		621.342508		17.318483		0.353036		1.253760		1.892938		1.502840		-31.934722		-0.890107		0.922008		424.401291		-41.721952		-0.289632		1.264062		1.904475		3.837820		33.058862		56.244415		
0.348742		-0.000000		-0.000000		-0.000000		0.103552		0.000000		0.319021		-0.000000		-0.000000		0.000000		0.000000		-0.000000		-0.000000		-0.151368		0.000000		0.304495		-0.000000		-0.000000		-0.000000		-30.305688		616.655174		13.868572		0.353081		1.253815		1.892975		1.556942		-31.680404		-0.712493		-0.006903		419.096376		-43.998020		-0.289601		1.264065		1.904478		3.826213		33.218942		55.511548		
0.351848		0.000000		-0.000000		-0.000000		0.103552		0.000000		0.319021		-0.000000		-0.000000		0.000000		0.000000		-0.000000		-0.000000		-0.151368		0.000000		0.304495		-0.000000		0.000000		-0.000000		-31.353241		611.814106		10.022754		0.353114		1.253864		1.893012		1.610150		-31.419806		-0.514720		-0.953945		413.234834		-46.100761		-0.289570		1.264070		1.904484		3.821209		33.305430		54.711288		
0.354955		0.000000		-0.000000		-0.000000		0.103552		0.000000		0.319021		-0.000000		-0.000000		0.000000		-0.000000		-0.000000		-0.000000		-0.151368		0.000000		0.304495		-0.000000		0.000000		-0.000000		-32.372824		606.800504		5.697234		0.353137		1.253901		1.893041		1.661898		-31.150829		-0.292475		-1.904894		406.795637		-48.009918		-0.289541		1.264076		1.904492		3.819202		33.313674		53.836400		
0.358061		0.000000		0.000000		-0.000000		0.103552		0.000000		0.319021		0.000000		-0.000000		-0.000000		-0.000000		-0.000000		-0.000000		-0.151368		0.000000		0.304495		-0.000000		0.000000		-0.000000		-33.373507		601.639240		0.876184		0.353148		1.253918		1.893057		1.712700		-30.875629		-0.044965		-2.838734		399.810610		-49.700233		-0.289520		1.264084		1.904505		3.816346		33.242484		52.887114		
0.361167		0.000000		0.000000		0.000000		0.103552		0.000000		0.319021		0.000000		-0.000000		-0.000000		-0.000000		0.000000		-0.000000		-0.151368		0.000000		0.304495		-0.000000		0.000000		0.000000		-34.374243		596.426172		-4.358694		0.353156		1.253922		1.893067		1.763705		-30.601976		0.223640		-3.737659		392.348455		-51.169045		-0.289505		1.264094		1.904522		3.811137		33.095720		51.868986		
0.364273		0.000000		0.000000		0.000000		0.103552		0.000000		0.319021		0.000000		0.000000		-0.000000		-0.000000		0.000000		0.000000		-0.151368		0.000000		0.304495		0.000000		0.000000		0.000000		-35.390055		591.326503		-9.880921		0.353161		1.253918		1.893080		1.815945		-30.342314		0.507013		-4.596744		384.482848		-52.425135		-0.289497		1.264105		1.904542		3.805013		32.878299		50.790379		
0.367379		-0.000000		0.000000		0.000000		0.103552		0.000000		0.319021		0.000000		0.000000		-0.000000		-0.000000		0.000000		0.000000		-0.151368		0.000000		0.304495		0.000000		-0.000000		0.000000		-36.422858		586.539560		-15.551145		0.353161		1.253918		1.893109		1.869789		-30.110353		0.798328		-5.424019		376.259886		-53.477574		-0.289493		1.264116		1.904563		3.800613		32.593023		49.658669		
0.370485		-0.000000		0.000000		0.000000		0.103552		0.000000		0.319021		0.000000		0.000000		-0.000000		0.000000		0.000000		0.000000		-0.151368		0.000000		0.304495		0.000000		-0.000000		0.000000		-37.463446		582.240907		-21.220739		0.353148		1.253934		1.893174		1.924925		-29.916369		1.090352		-6.230791		367.677301		-54.329965		-0.289491		1.264126		1.904584		-0.414681		24.470199		-3.615848		
0.373591		-0.000000		-0.000000		0.000000		0.103552		0.000000		0.319021		0.000000		0.000000		0.000000		0.000000		0.000000		0.000000		-0.151368		0.000000		0.304495		0.000000		-0.000000		0.000000		-38.496958		578.522664		-26.805027		0.353119		1.253971		1.893279		1.980567		-29.763467		1.379050		-7.017271		358.677506		-54.959572		-0.289488		1.264134		1.904602		-0.468068		23.924607		-3.665930		
0.376697		-0.000000		-0.000000		-0.000000		0.103552		0.000000		0.319021		-0.000000		0.000000		0.000000		0.000000		-0.000000		0.000000		-0.151368		0.000000		0.304495		0.000000		-0.000000		-0.000000		-39.513223		575.348599		-32.253081		0.353071		1.254029		1.893424		2.035975		-29.645647		1.661889		-7.771454		349.157203		-55.338496		-0.289482		1.264141		1.904617		-0.519184		23.325975		-3.696973		
0.379803		-0.000000		-0.000000		-0.000000		0.103552		0.000000		0.319021		-0.000000		-0.000000		0.000000		0.000000		-0.000000		-0.000000		-0.151368		0.000000		0.304495		-0.000000		-0.000000		-0.000000		-40.512384		572.568555		-37.535994		0.353011		1.254101		1.893598		2.090821		-29.549922		1.937213		-8.480009		338.975656		-55.442570		-0.289471		1.264149		1.904628		-0.566957		22.663243		-3.706781		
0.382909		0.000000		-0.000000		-0.000000		0.103552		0.000000		0.319021		-0.000000		-0.000000		0.000000		0.000000		-0.000000		-0.000000		-0.151368		0.000000		0.304495		-0.000000		0.000000		-0.000000		-41.499590		569.961415		-42.636755		0.352950		1.254176		1.893778		2.145003		-29.459780		2.203781		-9.141829		327.970283		-55.254776		-0.289457		1.264159		1.904637		-0.611097		21.923607		-3.693578		
0.386015		0.000000		-0.000000		-0.000000		0.103552		0.000000		0.319021		-0.000000		-0.000000		0.000000		-0.000000		-0.000000		-0.000000		-0.151368		0.000000		0.304495		-0.000000		0.000000		-0.000000		-42.472036		567.290498		-47.566171		0.352903		1.254241		1.893942		2.198064		-29.359096		2.461702		-9.774672		315.971968		-54.763358		-0.289441		1.264171		1.904640		-0.652582		21.095093		-3.656141		
0.389121		0.000000		-0.000000		-0.000000		0.103552		0.000000		0.319021		-0.000000		-0.000000		0.000000		-0.000000		-0.000000		-0.000000		-0.151368		0.000000		0.304495		-0.000000		0.000000		-0.000000		-43.408598		564.353216		-52.322838		0.352877		1.254291		1.894075		2.248731		-29.235646		2.710523		-10.412343		302.822017		-53.953240		-0.289424		1.264188		1.904638		-0.693517		20.169575		-3.593574		
0.392227		0.000000		0.000000		-0.000000		0.103552		0.000000		0.319021		0.000000		-0.000000		-0.000000		-0.000000		0.000000		-0.000000		-0.151368		0.000000		0.304495		-0.000000		0.000000		0.000000		-44.258838		561.009595		-56.906545		0.352875		1.254325		1.894177		2.294441		-29.083528		2.950116		-11.094828		288.413087		-52.803485		-0.289408		1.264208		1.904626		-0.736522		19.146146		-3.505328		
0.395333		0.000000		0.000000		0.000000		0.103552		0.000000		0.319021		0.000000		0.000000		-0.000000		-0.000000		0.000000		-0.000000		-0.151368		0.000000		0.304495		0.000000		0.000000		0.000000		-44.946621		557.171497		-61.333475		0.352893		1.254350		1.894254		2.331554		-28.902630		3.181604		-11.858776		272.695848		-51.291155		-0.289392		1.264231		1.904604		-0.784034		18.029156		-3.391088		
0.398439		0.000000		0.000000		0.000000		0.103552		0.000000		0.319021		0.000000		0.000000		-0.000000		-0.000000		0.000000		0.000000		-0.151368		0.000000		0.304495		0.000000		0.000000		0.000000		-45.393477		552.774367		-65.647602		0.352917		1.254372		1.894325		2.356508		-28.696123		3.407958		-12.730045		255.694764		-49.391867		-0.289376		1.264257		1.904570		-0.837703		16.826075		-3.250246		
0.401545		-0.000000		0.000000		0.000000		0.103552		0.000000		0.319021		0.000000		0.000000		-0.000000		-0.000000		0.000000		0.000000		-0.151368		0.000000		0.304495		0.000000		-0.000000		0.000000		-45.533825		547.746588		-69.903673		0.352936		1.254397		1.894399		2.366404		-28.466522		3.632912		-13.720359		237.508084		-47.065369		-0.289358		1.264285		1.904525		-0.897996		15.544903		-3.080427		
